<svg id="visual" viewBox="0 0 900 600" width="900" height="600" xmlns="http://www.w3.org/2000/svg" xmlns:xlink="http://www.w3.org/1999/xlink" version="1.1"><rect x="0" y="0" width="900" height="600" fill="#808080"></rect><path d="M0 451L6.8 447.2C13.7 443.3 27.3 435.7 41 439.3C54.7 443 68.3 458 82 468.3C95.7 478.7 109.3 484.3 123 486.7C136.7 489 150.3 488 164 485C177.7 482 191.3 477 204.8 474.5C218.3 472 231.7 472 245.2 468C258.7 464 272.3 456 286 461.7C299.7 467.3 313.3 486.7 327 479C340.7 471.3 354.3 436.7 368 424.8C381.7 413 395.3 424 409 437.5C422.7 451 436.3 467 450 474.2C463.7 481.3 477.3 479.7 491 480.7C504.7 481.7 518.3 485.3 532 471.7C545.7 458 559.3 427 573 429.3C586.7 431.7 600.3 467.3 614 470C627.7 472.7 641.3 442.3 654.8 436.3C668.3 430.3 681.7 448.7 695.2 452.8C708.7 457 722.3 447 736 441.5C749.7 436 763.3 435 777 449.2C790.7 463.3 804.3 492.7 818 486.3C831.7 480 845.3 438 859 417.2C872.7 396.3 886.3 396.7 893.2 396.8L900 397L900 601L893.2 601C886.3 601 872.7 601 859 601C845.3 601 831.7 601 818 601C804.3 601 790.7 601 777 601C763.3 601 749.7 601 736 601C722.3 601 708.7 601 695.2 601C681.7 601 668.3 601 654.8 601C641.3 601 627.7 601 614 601C600.3 601 586.7 601 573 601C559.3 601 545.7 601 532 601C518.3 601 504.7 601 491 601C477.3 601 463.7 601 450 601C436.3 601 422.7 601 409 601C395.3 601 381.7 601 368 601C354.3 601 340.7 601 327 601C313.3 601 299.7 601 286 601C272.3 601 258.7 601 245.2 601C231.7 601 218.3 601 204.8 601C191.3 601 177.7 601 164 601C150.3 601 136.7 601 123 601C109.3 601 95.7 601 82 601C68.3 601 54.7 601 41 601C27.3 601 13.7 601 6.8 601L0 601Z" fill="#c62368"></path><path d="M0 512L6.8 498C13.7 484 27.3 456 41 447.7C54.7 439.3 68.3 450.7 82 467.8C95.7 485 109.3 508 123 502.2C136.7 496.3 150.3 461.7 164 455.3C177.7 449 191.3 471 204.8 481.2C218.3 491.3 231.7 489.7 245.2 485.7C258.7 481.7 272.3 475.3 286 482.7C299.7 490 313.3 511 327 517.2C340.7 523.3 354.3 514.7 368 501.7C381.7 488.7 395.3 471.3 409 467.2C422.7 463 436.3 472 450 481.7C463.7 491.3 477.3 501.7 491 492.5C504.7 483.3 518.3 454.7 532 441C545.7 427.3 559.3 428.7 573 444C586.7 459.3 600.3 488.7 614 487.7C627.7 486.7 641.3 455.3 654.8 457.2C668.3 459 681.7 494 695.2 505.2C708.7 516.3 722.3 503.7 736 496.8C749.7 490 763.3 489 777 490.5C790.7 492 804.3 496 818 490.8C831.7 485.7 845.3 471.3 859 466.7C872.7 462 886.3 467 893.2 469.5L900 472L900 601L893.2 601C886.3 601 872.7 601 859 601C845.3 601 831.7 601 818 601C804.3 601 790.7 601 777 601C763.3 601 749.7 601 736 601C722.3 601 708.7 601 695.2 601C681.7 601 668.3 601 654.8 601C641.3 601 627.7 601 614 601C600.3 601 586.7 601 573 601C559.3 601 545.7 601 532 601C518.3 601 504.7 601 491 601C477.3 601 463.7 601 450 601C436.3 601 422.7 601 409 601C395.3 601 381.7 601 368 601C354.3 601 340.7 601 327 601C313.3 601 299.7 601 286 601C272.3 601 258.7 601 245.2 601C231.7 601 218.3 601 204.8 601C191.3 601 177.7 601 164 601C150.3 601 136.7 601 123 601C109.3 601 95.7 601 82 601C68.3 601 54.7 601 41 601C27.3 601 13.7 601 6.8 601L0 601Z" fill="#b42c57"></path><path d="M0 530L6.8 519.8C13.7 509.7 27.3 489.3 41 482.3C54.7 475.3 68.3 481.7 82 493.8C95.7 506 109.3 524 123 529.8C136.7 535.7 150.3 529.3 164 519.5C177.7 509.7 191.3 496.3 204.8 499.2C218.3 502 231.7 521 245.2 527.8C258.7 534.7 272.3 529.3 286 532.8C299.7 536.3 313.3 548.7 327 549.3C340.7 550 354.3 539 368 534.5C381.7 530 395.3 532 409 535.3C422.7 538.7 436.3 543.3 450 537.2C463.7 531 477.3 514 491 506.7C504.7 499.3 518.3 501.7 532 507.2C545.7 512.7 559.3 521.3 573 517.2C586.7 513 600.3 496 614 493.7C627.7 491.3 641.3 503.7 654.8 513C668.3 522.3 681.7 528.7 695.2 533C708.7 537.3 722.3 539.7 736 531C749.7 522.3 763.3 502.7 777 494.7C790.7 486.7 804.3 490.3 818 492.8C831.7 495.3 845.3 496.7 859 505.7C872.7 514.7 886.3 531.3 893.2 539.7L900 548L900 601L893.2 601C886.3 601 872.7 601 859 601C845.3 601 831.7 601 818 601C804.3 601 790.7 601 777 601C763.3 601 749.7 601 736 601C722.3 601 708.7 601 695.2 601C681.7 601 668.3 601 654.8 601C641.3 601 627.7 601 614 601C600.3 601 586.7 601 573 601C559.3 601 545.7 601 532 601C518.3 601 504.7 601 491 601C477.3 601 463.7 601 450 601C436.3 601 422.7 601 409 601C395.3 601 381.7 601 368 601C354.3 601 340.7 601 327 601C313.3 601 299.7 601 286 601C272.3 601 258.7 601 245.2 601C231.7 601 218.3 601 204.8 601C191.3 601 177.7 601 164 601C150.3 601 136.7 601 123 601C109.3 601 95.7 601 82 601C68.3 601 54.7 601 41 601C27.3 601 13.7 601 6.8 601L0 601Z" fill="#a03249"></path><path d="M0 535L6.8 538C13.7 541 27.3 547 41 549C54.7 551 68.3 549 82 551.7C95.7 554.3 109.3 561.7 123 564.7C136.7 567.7 150.3 566.3 164 563.8C177.7 561.3 191.3 557.7 204.8 555.2C218.3 552.7 231.7 551.3 245.2 549.2C258.7 547 272.3 544 286 548.7C299.7 553.3 313.3 565.7 327 565.7C340.7 565.7 354.3 553.3 368 554C381.7 554.7 395.3 568.3 409 564.5C422.7 560.7 436.3 539.3 450 531.8C463.7 524.3 477.3 530.7 491 540.5C504.7 550.3 518.3 563.7 532 570.2C545.7 576.7 559.3 576.3 573 568C586.7 559.7 600.3 543.3 614 536C627.7 528.7 641.3 530.3 654.8 532C668.3 533.7 681.7 535.3 695.2 532.7C708.7 530 722.3 523 736 525.3C749.7 527.7 763.3 539.3 777 546.5C790.7 553.7 804.3 556.3 818 557.2C831.7 558 845.3 557 859 551C872.7 545 886.3 534 893.2 528.5L900 523L900 601L893.2 601C886.3 601 872.7 601 859 601C845.3 601 831.7 601 818 601C804.3 601 790.7 601 777 601C763.3 601 749.7 601 736 601C722.3 601 708.7 601 695.2 601C681.7 601 668.3 601 654.8 601C641.3 601 627.7 601 614 601C600.3 601 586.7 601 573 601C559.3 601 545.7 601 532 601C518.3 601 504.7 601 491 601C477.3 601 463.7 601 450 601C436.3 601 422.7 601 409 601C395.3 601 381.7 601 368 601C354.3 601 340.7 601 327 601C313.3 601 299.7 601 286 601C272.3 601 258.7 601 245.2 601C231.7 601 218.3 601 204.8 601C191.3 601 177.7 601 164 601C150.3 601 136.7 601 123 601C109.3 601 95.7 601 82 601C68.3 601 54.7 601 41 601C27.3 601 13.7 601 6.8 601L0 601Z" fill="#8c363e"></path></svg>