<?xml version="1.0" encoding="UTF-8" standalone="no"?><!DOCTYPE svg PUBLIC "-//W3C//DTD SVG 1.1//EN" "http://www.w3.org/Graphics/SVG/1.1/DTD/svg11.dtd"><svg width="100%" height="100%" viewBox="0 0 900 600" version="1.1" xmlns="http://www.w3.org/2000/svg" xmlns:xlink="http://www.w3.org/1999/xlink" xml:space="preserve" xmlns:serif="http://www.serif.com/" style="fill-rule:evenodd;clip-rule:evenodd;stroke-linejoin:round;stroke-miterlimit:2;"><g><path d="M182.59,235.95l2.904,-1.623c2.946,-1.665 8.753,-4.91 14.603,-3.373c5.85,1.58 11.657,7.985 17.507,12.383c5.85,4.441 11.657,6.832 17.507,7.857c5.85,0.982 11.658,0.555 17.507,-0.726c5.85,-1.281 11.658,-3.416 17.422,-4.484c5.765,-1.067 11.487,-1.067 17.251,-2.775c5.765,-1.708 11.572,-5.124 17.422,-2.69c5.85,2.391 11.657,10.675 17.507,7.387c5.85,-3.288 11.657,-18.062 17.507,-23.144c5.85,-5.038 11.657,-0.341 17.507,5.423c5.85,5.765 11.657,12.597 17.507,15.671c5.85,3.032 11.657,2.349 17.507,2.776c5.85,0.427 11.657,1.964 17.507,-3.843c5.85,-5.85 11.657,-19.087 17.507,-18.105c5.85,1.025 11.658,16.226 17.507,17.379c5.85,1.153 11.658,-11.828 17.422,-14.39c5.765,-2.562 11.487,5.295 17.251,7.045c5.765,1.794 11.572,-2.476 17.422,-4.825c5.85,-2.348 11.657,-2.775 17.507,3.288c5.85,6.021 11.657,18.575 17.507,15.842c5.85,-2.69 11.657,-20.624 17.507,-29.506c5.85,-8.924 11.657,-8.754 14.604,-8.711l2.903,0.086l0,87.108l-384.302,-0l0,-64.05Z" style="fill:#c62368;fill-rule:nonzero;"/><path d="M182.59,261.997l2.904,-5.978c2.946,-5.978 8.753,-17.934 14.603,-21.478c5.85,-3.587 11.657,1.281 17.507,8.582c5.85,7.345 11.657,17.166 17.507,14.689c5.85,-2.519 11.658,-17.293 17.507,-20.026c5.85,-2.69 11.658,6.704 17.422,11.059c5.765,4.313 11.487,3.63 17.251,1.922c5.765,-1.708 11.572,-4.441 17.422,-1.281c5.85,3.117 11.657,12.084 17.507,14.731c5.85,2.605 11.657,-1.067 17.507,-6.618c5.85,-5.551 11.657,-12.981 17.507,-14.732c5.85,-1.793 11.657,2.05 17.507,6.192c5.85,4.099 11.657,8.54 17.507,4.611c5.85,-3.928 11.657,-16.14 17.507,-21.99c5.85,-5.85 11.657,-5.252 17.507,1.281c5.85,6.533 11.658,19.087 17.507,18.66c5.85,-0.427 11.658,-13.835 17.422,-13.024c5.765,0.769 11.487,15.714 17.251,20.496c5.765,4.74 11.572,-0.64 17.422,-3.587c5.85,-2.903 11.657,-3.33 17.507,-2.69c5.85,0.641 11.657,2.349 17.507,0.128c5.85,-2.177 11.657,-8.326 17.507,-10.29c5.85,-2.007 11.657,0.128 14.604,1.195l2.903,1.068l0,55.083l-384.302,0l0,-38.003Z" style="fill:#b42c57;fill-rule:nonzero;"/><path d="M182.59,269.683l2.904,-4.356c2.946,-4.312 8.753,-13.023 14.603,-16.012c5.85,-2.989 11.657,-0.256 17.507,4.91c5.85,5.21 11.657,12.896 17.507,15.372c5.85,2.52 11.658,-0.213 17.507,-4.398c5.85,-4.184 11.658,-9.906 17.422,-8.668c5.765,1.196 11.487,9.309 17.251,12.212c5.765,2.947 11.572,0.641 17.422,2.135c5.85,1.495 11.657,6.79 17.507,7.046c5.85,0.299 11.657,-4.398 17.507,-6.32c5.85,-1.921 11.657,-1.067 17.507,0.342c5.85,1.452 11.657,3.416 17.507,0.811c5.85,-2.647 11.657,-9.906 17.507,-13.023c5.85,-3.16 11.657,-2.135 17.507,0.213c5.85,2.349 11.657,6.021 17.507,4.27c5.85,-1.793 11.658,-9.052 17.507,-10.034c5.85,-1.025 11.658,4.27 17.422,8.241c5.765,3.971 11.487,6.704 17.251,8.54c5.765,1.836 11.572,2.861 17.422,-0.854c5.85,-3.715 11.657,-12.084 17.507,-15.5c5.85,-3.416 11.657,-1.879 17.507,-0.812c5.85,1.068 11.657,1.666 17.507,5.509c5.85,3.843 11.657,10.931 14.604,14.518l2.903,3.544l0,22.631l-384.302,0l0,-30.317Z" style="fill:#a03249;fill-rule:nonzero;"/><path d="M182.59,271.818l2.904,1.281c2.946,1.281 8.753,3.843 14.603,4.697c5.85,0.854 11.657,-0 17.507,1.153c5.85,1.11 11.657,4.27 17.507,5.551c5.85,1.281 11.658,0.683 17.507,-0.384c5.85,-1.068 11.658,-2.605 17.422,-3.673c5.765,-1.067 11.487,-1.665 17.251,-2.562c5.765,-0.939 11.572,-2.22 17.422,-0.213c5.85,1.964 11.657,7.259 17.507,7.259c5.85,-0 11.657,-5.295 17.507,-4.996c5.85,0.299 11.657,6.106 17.507,4.483c5.85,-1.622 11.657,-10.76 17.507,-13.963c5.85,-3.202 11.657,-0.469 17.507,3.715c5.85,4.185 11.657,9.907 17.507,12.682c5.85,2.776 11.657,2.605 17.507,-0.939c5.85,-3.544 11.658,-10.547 17.507,-13.664c5.85,-3.117 11.658,-2.434 17.422,-1.708c5.765,0.726 11.487,1.409 17.251,0.299c5.765,-1.153 11.572,-4.142 17.422,-3.16c5.85,1.025 11.657,5.978 17.507,9.052c5.85,3.075 11.657,4.185 17.507,4.569c5.85,0.342 11.657,-0.085 17.507,-2.647c5.85,-2.562 11.657,-7.259 14.604,-9.608l2.903,-2.348l0,33.306l-384.302,0l0,-28.182Z" style="fill:#8c363e;fill-rule:nonzero;"/></g></svg>