<svg id="visual" viewBox="0 0 900 600" width="900" height="600" xmlns="http://www.w3.org/2000/svg" xmlns:xlink="http://www.w3.org/1999/xlink" version="1.1"><rect x="0" y="0" width="900" height="600" fill="#5d5d5d"></rect><path d="M0 494L8.3 480C16.7 466 33.3 438 50 429.7C66.7 421.3 83.3 432.7 100 449.5C116.7 466.3 133.3 488.7 150 485.7C166.7 482.7 183.3 454.3 200 450.8C216.7 447.3 233.3 468.7 250 475.5C266.7 482.3 283.3 474.7 300 461.7C316.7 448.7 333.3 430.3 350 432.5C366.7 434.7 383.3 457.3 400 465.2C416.7 473 433.3 466 450 471.7C466.7 477.3 483.3 495.7 500 492.7C516.7 489.7 533.3 465.3 550 456.7C566.7 448 583.3 455 600 445.3C616.7 435.7 633.3 409.3 650 417.3C666.7 425.3 683.3 467.7 700 486.2C716.7 504.7 733.3 499.3 750 495.2C766.7 491 783.3 488 800 479.5C816.7 471 833.3 457 850 454.3C866.7 451.7 883.3 460.3 891.7 464.7L900 469L900 601L891.7 601C883.3 601 866.7 601 850 601C833.3 601 816.7 601 800 601C783.3 601 766.7 601 750 601C733.3 601 716.7 601 700 601C683.3 601 666.7 601 650 601C633.3 601 616.7 601 600 601C583.3 601 566.7 601 550 601C533.3 601 516.7 601 500 601C483.3 601 466.7 601 450 601C433.3 601 416.7 601 400 601C383.3 601 366.7 601 350 601C333.3 601 316.7 601 300 601C283.3 601 266.7 601 250 601C233.3 601 216.7 601 200 601C183.3 601 166.7 601 150 601C133.3 601 116.7 601 100 601C83.3 601 66.7 601 50 601C33.3 601 16.7 601 8.3 601L0 601Z" fill="#fff" stroke-linecap="round" stroke-linejoin="miter"></path></svg>